<mxfile host="Electron" agent="Mozilla/5.0 (X11; Linux x86_64) AppleWebKit/537.36 (KHTML, like Gecko) draw.io/26.0.4 Chrome/128.0.6613.186 Electron/32.2.5 Safari/537.36" version="26.0.4">
  <diagram name="Page-1" id="t-Kq1Q2eaQKo6x80-OKi">
    <mxGraphModel dx="574" dy="336" grid="1" gridSize="10" guides="1" tooltips="1" connect="1" arrows="1" fold="1" page="0" pageScale="1" pageWidth="850" pageHeight="1100" math="0" shadow="0">
      <root>
        <mxCell id="0" />
        <mxCell id="1" parent="0" />
        <mxCell id="jJCX0NFE9alLCKM_SrBx-13" value="" style="rounded=0;whiteSpace=wrap;html=1;strokeWidth=1;fillColor=default;pointerEvents=0;shadow=1;" parent="1" vertex="1">
          <mxGeometry x="140" y="60" width="320" height="260" as="geometry" />
        </mxCell>
        <mxCell id="jJCX0NFE9alLCKM_SrBx-1" value="TX FIFO" style="rounded=0;whiteSpace=wrap;html=1;shadow=1;fillColor=#d5e8d4;strokeColor=#82b366;" parent="1" vertex="1">
          <mxGeometry x="280" y="120" width="80" height="40" as="geometry" />
        </mxCell>
        <mxCell id="jJCX0NFE9alLCKM_SrBx-2" value="RX FIFO" style="rounded=0;whiteSpace=wrap;html=1;shadow=1;fillColor=#ffe6cc;strokeColor=#d79b00;" parent="1" vertex="1">
          <mxGeometry x="280" y="180" width="80" height="40" as="geometry" />
        </mxCell>
        <mxCell id="jJCX0NFE9alLCKM_SrBx-3" value="TX" style="rounded=0;whiteSpace=wrap;html=1;shadow=1;fillColor=#d5e8d4;strokeColor=#82b366;" parent="1" vertex="1">
          <mxGeometry x="400" y="120" width="40" height="40" as="geometry" />
        </mxCell>
        <mxCell id="jJCX0NFE9alLCKM_SrBx-6" style="rounded=0;orthogonalLoop=1;jettySize=auto;html=1;exitX=0;exitY=0.5;exitDx=0;exitDy=0;entryX=1;entryY=0.5;entryDx=0;entryDy=0;strokeWidth=2;fillColor=#ffe6cc;strokeColor=#d79b00;" parent="1" source="jJCX0NFE9alLCKM_SrBx-4" target="jJCX0NFE9alLCKM_SrBx-2" edge="1">
          <mxGeometry relative="1" as="geometry" />
        </mxCell>
        <mxCell id="toEKSeIERoec3VUGcLkd-11" style="edgeStyle=orthogonalEdgeStyle;rounded=0;orthogonalLoop=1;jettySize=auto;html=1;exitX=0.5;exitY=1;exitDx=0;exitDy=0;entryX=1;entryY=0.5;entryDx=0;entryDy=0;endSize=4;fillColor=#e1d5e7;strokeColor=#9673a6;startSize=4;" edge="1" parent="1" source="jJCX0NFE9alLCKM_SrBx-4" target="toEKSeIERoec3VUGcLkd-2">
          <mxGeometry relative="1" as="geometry" />
        </mxCell>
        <mxCell id="jJCX0NFE9alLCKM_SrBx-4" value="RX" style="rounded=0;whiteSpace=wrap;html=1;shadow=1;fillColor=#ffe6cc;strokeColor=#d79b00;" parent="1" vertex="1">
          <mxGeometry x="400" y="180" width="40" height="40" as="geometry" />
        </mxCell>
        <mxCell id="jJCX0NFE9alLCKM_SrBx-5" value="" style="endArrow=classic;html=1;rounded=0;exitX=1;exitY=0.5;exitDx=0;exitDy=0;entryX=0;entryY=0.5;entryDx=0;entryDy=0;strokeWidth=2;fillColor=#d5e8d4;strokeColor=#82b366;" parent="1" source="jJCX0NFE9alLCKM_SrBx-1" target="jJCX0NFE9alLCKM_SrBx-3" edge="1">
          <mxGeometry width="50" height="50" relative="1" as="geometry">
            <mxPoint x="360" y="150" as="sourcePoint" />
            <mxPoint x="410" y="100" as="targetPoint" />
          </mxGeometry>
        </mxCell>
        <mxCell id="jJCX0NFE9alLCKM_SrBx-7" value="APB Interface" style="rounded=0;whiteSpace=wrap;html=1;fillColor=#f8cecc;strokeColor=#b85450;shadow=1;horizontal=0;" parent="1" vertex="1">
          <mxGeometry x="160" y="80" width="20" height="200" as="geometry" />
        </mxCell>
        <mxCell id="jJCX0NFE9alLCKM_SrBx-8" value="" style="endArrow=classic;html=1;rounded=0;exitX=1;exitY=0.5;exitDx=0;exitDy=0;entryX=0;entryY=0.5;entryDx=0;entryDy=0;strokeWidth=2;fillColor=#d5e8d4;strokeColor=#82b366;" parent="1" edge="1">
          <mxGeometry width="50" height="50" relative="1" as="geometry">
            <mxPoint x="240" y="139.85" as="sourcePoint" />
            <mxPoint x="280" y="139.85" as="targetPoint" />
          </mxGeometry>
        </mxCell>
        <mxCell id="jJCX0NFE9alLCKM_SrBx-9" value="" style="endArrow=classic;html=1;rounded=0;exitX=1;exitY=0.5;exitDx=0;exitDy=0;entryX=0;entryY=0.5;entryDx=0;entryDy=0;strokeWidth=2;fillColor=#ffe6cc;strokeColor=#d79b00;" parent="1" edge="1">
          <mxGeometry width="50" height="50" relative="1" as="geometry">
            <mxPoint x="280" y="199.82" as="sourcePoint" />
            <mxPoint x="240" y="199.82" as="targetPoint" />
          </mxGeometry>
        </mxCell>
        <mxCell id="jJCX0NFE9alLCKM_SrBx-10" value="Register&lt;br&gt;File" style="rounded=0;whiteSpace=wrap;html=1;shadow=1;fillColor=#fff2cc;strokeColor=#d6b656;" parent="1" vertex="1">
          <mxGeometry x="180" y="80" width="60" height="200" as="geometry" />
        </mxCell>
        <mxCell id="jJCX0NFE9alLCKM_SrBx-17" value="" style="endArrow=classic;html=1;rounded=0;exitX=1;exitY=0.5;exitDx=0;exitDy=0;entryX=0;entryY=0.5;entryDx=0;entryDy=0;fillColor=#d5e8d4;strokeColor=#82b366;strokeWidth=2;" parent="1" edge="1">
          <mxGeometry width="50" height="50" relative="1" as="geometry">
            <mxPoint x="440" y="139.88" as="sourcePoint" />
            <mxPoint x="480" y="139.88" as="targetPoint" />
          </mxGeometry>
        </mxCell>
        <mxCell id="jJCX0NFE9alLCKM_SrBx-18" style="rounded=0;orthogonalLoop=1;jettySize=auto;html=1;exitX=0;exitY=0.5;exitDx=0;exitDy=0;entryX=1;entryY=0.5;entryDx=0;entryDy=0;fillColor=#ffe6cc;strokeColor=#d79b00;strokeWidth=2;" parent="1" edge="1">
          <mxGeometry relative="1" as="geometry">
            <mxPoint x="480" y="199.88" as="sourcePoint" />
            <mxPoint x="440" y="199.88" as="targetPoint" />
          </mxGeometry>
        </mxCell>
        <mxCell id="jJCX0NFE9alLCKM_SrBx-19" value="UART&lt;br&gt;I/O" style="rounded=0;whiteSpace=wrap;html=1;shadow=1;fillColor=#dae8fc;strokeColor=#6c8ebf;" parent="1" vertex="1">
          <mxGeometry x="480" y="120" width="60" height="100" as="geometry" />
        </mxCell>
        <mxCell id="jJCX0NFE9alLCKM_SrBx-20" value="APB Interconnect" style="rounded=0;whiteSpace=wrap;html=1;fillColor=#f8cecc;strokeColor=#b85450;shadow=1;horizontal=0;" parent="1" vertex="1">
          <mxGeometry x="60" y="80" width="40" height="200" as="geometry" />
        </mxCell>
        <mxCell id="jJCX0NFE9alLCKM_SrBx-22" value="APB" style="shape=flexArrow;endArrow=classic;startArrow=classic;html=1;rounded=0;exitX=1;exitY=0.5;exitDx=0;exitDy=0;entryX=0;entryY=0.5;entryDx=0;entryDy=0;width=20;startSize=4.765363128491621;startWidth=11.28491620111732;endWidth=11.28491620111732;endSize=4.765363128491621;fontColor=default;labelBackgroundColor=none;fillColor=#f8cecc;shadow=0;strokeColor=#b85450;" parent="1" source="jJCX0NFE9alLCKM_SrBx-20" target="jJCX0NFE9alLCKM_SrBx-7" edge="1">
          <mxGeometry width="100" height="100" relative="1" as="geometry">
            <mxPoint x="40" y="240" as="sourcePoint" />
            <mxPoint x="140" y="140" as="targetPoint" />
          </mxGeometry>
        </mxCell>
        <mxCell id="jJCX0NFE9alLCKM_SrBx-23" value="UART" style="text;html=1;align=right;verticalAlign=middle;whiteSpace=wrap;rounded=0;fontSize=20;" parent="1" vertex="1">
          <mxGeometry x="390" y="70" width="60" height="20" as="geometry" />
        </mxCell>
        <mxCell id="jJCX0NFE9alLCKM_SrBx-24" value="Clock Gen" style="rounded=0;whiteSpace=wrap;html=1;shadow=1;fillColor=#e1d5e7;strokeColor=#9673a6;" parent="1" vertex="1">
          <mxGeometry x="280" y="90" width="80" height="20" as="geometry" />
        </mxCell>
        <mxCell id="toEKSeIERoec3VUGcLkd-16" value="Interrupt" style="edgeStyle=orthogonalEdgeStyle;rounded=0;orthogonalLoop=1;jettySize=auto;html=1;exitX=1;exitY=0.5;exitDx=0;exitDy=0;fillColor=#e1d5e7;strokeColor=#9673a6;entryX=1;entryY=0.5;entryDx=0;entryDy=0;" edge="1" parent="1" target="toEKSeIERoec3VUGcLkd-17">
          <mxGeometry x="0.1664" relative="1" as="geometry">
            <mxPoint x="120" y="300" as="targetPoint" />
            <mxPoint x="320" y="280.08" as="sourcePoint" />
            <Array as="points">
              <mxPoint x="320" y="300" />
            </Array>
            <mxPoint as="offset" />
          </mxGeometry>
        </mxCell>
        <mxCell id="jJCX0NFE9alLCKM_SrBx-25" value="INTC" style="rounded=0;whiteSpace=wrap;html=1;shadow=1;fillColor=#e1d5e7;strokeColor=#9673a6;" parent="1" vertex="1">
          <mxGeometry x="280" y="260" width="80" height="20" as="geometry" />
        </mxCell>
        <mxCell id="toEKSeIERoec3VUGcLkd-12" style="edgeStyle=orthogonalEdgeStyle;rounded=0;orthogonalLoop=1;jettySize=auto;html=1;exitX=0.5;exitY=1;exitDx=0;exitDy=0;entryX=0.5;entryY=0;entryDx=0;entryDy=0;endSize=4;fillColor=#e1d5e7;strokeColor=#9673a6;startSize=4;" edge="1" parent="1" source="toEKSeIERoec3VUGcLkd-2" target="jJCX0NFE9alLCKM_SrBx-25">
          <mxGeometry relative="1" as="geometry" />
        </mxCell>
        <mxCell id="toEKSeIERoec3VUGcLkd-2" value="RX Timer" style="rounded=0;whiteSpace=wrap;html=1;shadow=1;fillColor=#e1d5e7;strokeColor=#9673a6;" vertex="1" parent="1">
          <mxGeometry x="280" y="230" width="80" height="20" as="geometry" />
        </mxCell>
        <mxCell id="toEKSeIERoec3VUGcLkd-3" value="" style="endArrow=classic;html=1;rounded=0;exitX=1;exitY=0.5;exitDx=0;exitDy=0;entryX=0;entryY=0.5;entryDx=0;entryDy=0;fillColor=#fff2cc;strokeColor=#d6b656;endSize=4;startSize=4;" edge="1" parent="1">
          <mxGeometry width="50" height="50" relative="1" as="geometry">
            <mxPoint x="240" y="99.76999999999998" as="sourcePoint" />
            <mxPoint x="280" y="99.76999999999998" as="targetPoint" />
          </mxGeometry>
        </mxCell>
        <mxCell id="toEKSeIERoec3VUGcLkd-4" value="" style="endArrow=classic;html=1;rounded=0;exitDx=0;exitDy=0;entryX=0.5;entryY=0;entryDx=0;entryDy=0;edgeStyle=orthogonalEdgeStyle;endFill=1;endSize=4;fillColor=#e1d5e7;strokeColor=#9673a6;startSize=4;" edge="1" parent="1" source="toEKSeIERoec3VUGcLkd-5" target="jJCX0NFE9alLCKM_SrBx-3">
          <mxGeometry width="50" height="50" relative="1" as="geometry">
            <mxPoint x="360" y="89.82999999999998" as="sourcePoint" />
            <mxPoint x="400" y="89.82999999999998" as="targetPoint" />
            <Array as="points">
              <mxPoint x="420" y="110" />
            </Array>
          </mxGeometry>
        </mxCell>
        <mxCell id="toEKSeIERoec3VUGcLkd-6" value="" style="endArrow=none;html=1;rounded=0;exitX=1;exitY=0.5;exitDx=0;exitDy=0;entryDx=0;entryDy=0;endFill=0;edgeStyle=orthogonalEdgeStyle;fillColor=#e1d5e7;strokeColor=#9673a6;endSize=4;startSize=4;" edge="1" parent="1" source="jJCX0NFE9alLCKM_SrBx-24" target="toEKSeIERoec3VUGcLkd-5">
          <mxGeometry width="50" height="50" relative="1" as="geometry">
            <mxPoint x="360" y="89.82999999999998" as="sourcePoint" />
            <mxPoint x="400" y="130" as="targetPoint" />
            <Array as="points">
              <mxPoint x="380" y="100" />
            </Array>
          </mxGeometry>
        </mxCell>
        <mxCell id="toEKSeIERoec3VUGcLkd-7" value="" style="edgeStyle=orthogonalEdgeStyle;rounded=0;orthogonalLoop=1;jettySize=auto;html=1;entryX=0.5;entryY=0;entryDx=0;entryDy=0;jumpStyle=arc;endArrow=classic;endFill=1;endSize=4;fillColor=#e1d5e7;strokeColor=#9673a6;startSize=4;" edge="1" parent="1" source="toEKSeIERoec3VUGcLkd-5" target="jJCX0NFE9alLCKM_SrBx-4">
          <mxGeometry relative="1" as="geometry">
            <Array as="points">
              <mxPoint x="380" y="170" />
              <mxPoint x="420" y="170" />
            </Array>
          </mxGeometry>
        </mxCell>
        <mxCell id="toEKSeIERoec3VUGcLkd-5" value="" style="shape=waypoint;sketch=0;fillStyle=solid;size=6;pointerEvents=1;points=[];fillColor=#e1d5e7;resizable=0;rotatable=0;perimeter=centerPerimeter;snapToPoint=1;strokeColor=#9673a6;" vertex="1" parent="1">
          <mxGeometry x="370" y="100" width="20" height="20" as="geometry" />
        </mxCell>
        <mxCell id="toEKSeIERoec3VUGcLkd-13" value="" style="endArrow=classic;html=1;rounded=0;exitX=1;exitY=0.5;exitDx=0;exitDy=0;entryX=0;entryY=0.5;entryDx=0;entryDy=0;fillColor=#fff2cc;strokeColor=#d6b656;endSize=4;startSize=4;" edge="1" parent="1">
          <mxGeometry width="50" height="50" relative="1" as="geometry">
            <mxPoint x="240" y="239.88" as="sourcePoint" />
            <mxPoint x="280" y="239.88" as="targetPoint" />
          </mxGeometry>
        </mxCell>
        <mxCell id="toEKSeIERoec3VUGcLkd-14" value="" style="endArrow=classic;html=1;rounded=0;exitX=1;exitY=0.5;exitDx=0;exitDy=0;entryX=0;entryY=0.5;entryDx=0;entryDy=0;fillColor=#fff2cc;strokeColor=#d6b656;startArrow=classic;startFill=1;endSize=4;startSize=4;" edge="1" parent="1">
          <mxGeometry width="50" height="50" relative="1" as="geometry">
            <mxPoint x="240" y="269.88" as="sourcePoint" />
            <mxPoint x="280" y="269.88" as="targetPoint" />
          </mxGeometry>
        </mxCell>
        <mxCell id="toEKSeIERoec3VUGcLkd-17" value="PLIC" style="rounded=0;whiteSpace=wrap;html=1;fillColor=#dae8fc;strokeColor=#6c8ebf;shadow=1;horizontal=1;" vertex="1" parent="1">
          <mxGeometry x="60" y="280" width="40" height="40" as="geometry" />
        </mxCell>
      </root>
    </mxGraphModel>
  </diagram>
</mxfile>
